<svg width="352" height="352" viewBox="0 0 352 352" fill="none" xmlns="http://www.w3.org/2000/svg">
    <path d="M71.95 349.27C71.8323 349.463 71.5345 349.343 71.5841 349.122L74.6898 335.288L74.741 335.34C75.9451 336.565 77.6094 337.226 79.3257 337.161V337.161L71.95 349.27Z" fill="#FFFFFF"/>
    <rect x="156.775" y="97.1849" width="15" height="250" rx="7.5" transform="rotate(20 156.775 97.1849)" fill="#ffffff"/>
    <path d="M281.369 349.199C281.419 349.42 281.121 349.54 281.004 349.347L273.628 337.238L273.701 337.24C275.418 337.285 277.074 336.604 278.264 335.365V335.365L281.369 349.199Z" fill="#FFFFFF"/>
    <path d="M184.391 109.363C182.975 105.471 184.982 101.167 188.874 99.75V99.75C192.766 98.3334 197.07 100.34 198.487 104.233L278.861 325.06C280.278 328.953 278.271 333.257 274.379 334.673V334.673C270.487 336.09 266.183 334.083 264.766 330.191L184.391 109.363Z" fill="#FFFFFF"/>
    <rect x="117.918" y="217.212" width="115" height="5" rx="2.5" fill="#FFFFFF"/>
    <path d="M172.598 205.841C172.598 205.818 172.6 205.796 172.604 205.774V205.774C173.353 201.592 179.354 201.591 180.093 205.774V205.774C180.096 205.796 180.098 205.818 180.098 205.84V229.927C180.098 229.947 180.097 229.968 180.093 229.988V229.988C179.399 234.274 173.204 234.257 172.598 229.958V229.958V205.841Z" fill="#FFFFFF"/>
    <mask id="mask0" mask-type="alpha" maskUnits="userSpaceOnUse" x="117" y="27" width="118" height="118">
        <path d="M229.779 86.2292C229.779 115.738 205.857 139.66 176.348 139.66C146.839 139.66 122.918 115.738 122.918 86.2292C122.918 56.7204 146.839 32.7989 176.348 32.7989C205.857 32.7989 229.779 56.7204 229.779 86.2292Z" stroke="#ffffff" stroke-width="10" />
    </mask>
    <g mask="url(#mask0)">
        <rect x="117.917" y="82.5773" width="113.209" height="29.2152" fill="#FFFFFF"/>
        <rect x="103.274" y="-1.41631" width="135.12" height="105.905" fill="#FFFFFF"/>
        <rect x="198.25" y="92.3417" width="70.9087" height="43.8228" transform="rotate(-23 198.25 92.3417)" fill="#FFFFFF"/>
        <rect x="85.5699" y="69.2029" width="72.3011" height="49.1174" transform="rotate(23 85.5699 69.2029)" fill="#FFFFFF"/>
    </g>
    <path d="M170.871 5.94734C170.871 5.75497 170.947 5.5689 171.082 5.43129V5.43129C173.967 2.47709 178.757 2.46036 181.622 5.43468V5.43468C181.753 5.57107 181.826 5.75307 181.826 5.94244V23.5701C181.826 23.7304 181.663 23.8393 181.515 23.7779V23.7779C178.23 22.4173 174.54 22.4082 171.248 23.7527L171.184 23.7786C171.035 23.8398 170.871 23.7296 170.871 23.5678V5.94734Z" fill="#FFFFFF"/>
</svg>